<svg width="18" height="24" viewBox="0 0 18 24" fill="none" xmlns="http://www.w3.org/2000/svg">
<path d="M17.877 9.09732C17.7834 8.89992 17.6402 8.73392 17.4634 8.61771C17.2865 8.50151 17.0828 8.43964 16.8749 8.43897H11.2453V1.25696C11.2574 0.99444 11.1878 0.734987 11.0474 0.518651C10.907 0.302316 10.7036 0.141125 10.4684 0.0599602C10.2424 -0.01911 9.99854 -0.0199986 9.77198 0.0574219C9.54542 0.134842 9.34776 0.28659 9.20738 0.490881L0.200025 13.6579C0.0871689 13.8313 0.0194031 14.0333 0.00358609 14.2435C-0.012231 14.4537 0.0244621 14.6646 0.109951 14.8549C0.188677 15.0725 0.325439 15.2608 0.503448 15.3969C0.681458 15.533 0.892969 15.6109 1.11202 15.621H6.74161V22.803C6.74179 23.0554 6.81702 23.3013 6.95655 23.5056C7.09608 23.7098 7.29276 23.8619 7.5185 23.9401C7.63162 23.9774 7.74912 23.9976 7.86753 24C8.04519 24.0005 8.22043 23.9563 8.37893 23.871C8.53744 23.7857 8.67471 23.6617 8.77953 23.5092L17.7869 10.3422C17.9082 10.1636 17.9808 9.95288 17.9967 9.73324C18.0126 9.51359 17.9711 9.29354 17.877 9.09732ZM8.99345 19.1162V14.424C8.99345 14.1065 8.87483 13.8021 8.66368 13.5776C8.45253 13.3531 8.16615 13.227 7.86753 13.227H3.36386L8.99345 4.94373V9.63597C8.99345 9.95344 9.11208 10.2579 9.32323 10.4824C9.53438 10.7069 9.82076 10.833 10.1194 10.833H14.623L8.99345 19.1162Z" fill="#C80013"/>
</svg>
