<svg width="21" height="19" viewBox="0 0 21 19" fill="none" xmlns="http://www.w3.org/2000/svg">
<path d="M19.6613 0C18.9536 0 18.3803 0.544337 18.3318 1.23156L8.20312 4.03004V12.9549L18.3318 15.7534C18.3803 16.441 18.9536 16.9893 19.6613 16.9893C20.4006 16.9893 21 16.3926 21 15.6618V1.32317C21 0.592397 20.4006 0 19.6613 0ZM6.26637 12.8166H7.32812V4.16842H1.78939C0.805012 4.16842 0 4.95973 0 5.93698V11.0437C0 12.0209 0.805012 12.8166 1.78939 12.8166H2.36841L4.13 18.6887C4.18688 18.8746 4.35751 19 4.55001 19H7.5425C7.67812 19 7.80936 18.9352 7.89249 18.8271C7.97562 18.719 7.99751 18.5762 7.95813 18.4465L6.26637 12.8166Z" fill="#C80013"/>
</svg>
