<svg width="19" height="19" viewBox="0 0 19 19" fill="none" xmlns="http://www.w3.org/2000/svg">
<g clip-path="url(#clip0_61_43)">
<path d="M9.12891 0.560059C7.88672 0.560059 6.7207 0.800293 5.63086 1.28076C4.54102 1.74951 3.58887 2.39111 2.77441 3.20557C1.95996 4.02002 1.31836 4.97217 0.849609 6.06201C0.369141 7.15186 0.128906 8.31787 0.128906 9.56006C0.128906 10.8022 0.369141 11.9683 0.849609 13.0581C1.31836 14.1479 1.95996 15.1001 2.77441 15.9146C3.58887 16.729 4.54102 17.3706 5.63086 17.8394C6.7207 18.3198 7.88672 18.5601 9.12891 18.5601C10.3711 18.5601 11.5371 18.3198 12.627 17.8394C13.7168 17.3706 14.6689 16.729 15.4834 15.9146C16.2979 15.1001 16.9395 14.1479 17.4082 13.0581C17.8887 11.9683 18.1289 10.8022 18.1289 9.56006C18.1289 8.31787 17.8887 7.15186 17.4082 6.06201C16.9395 4.97217 16.2979 4.02002 15.4834 3.20557C14.6689 2.39111 13.7168 1.74951 12.627 1.28076C11.5371 0.800293 10.3711 0.560059 9.12891 0.560059ZM13.8926 12.6187C13.8926 12.7944 13.8311 12.9468 13.708 13.0757C13.585 13.2046 13.4355 13.269 13.2598 13.269C13.0957 13.269 12.9521 13.2046 12.8291 13.0757C12.7061 12.9468 12.6445 12.7944 12.6445 12.6187V10.2632H10.7812V12.6187C10.7812 12.7944 10.7197 12.9468 10.5967 13.0757C10.4736 13.2046 10.3242 13.269 10.1484 13.269C9.98438 13.269 9.84082 13.2046 9.71777 13.0757C9.59473 12.9468 9.5332 12.7944 9.5332 12.6187V10.2632H7.66992V12.6187C7.66992 12.7944 7.6084 12.9468 7.48535 13.0757C7.3623 13.2046 7.21289 13.269 7.03711 13.269C6.87305 13.269 6.72949 13.2046 6.60645 13.0757C6.4834 12.9468 6.42188 12.7944 6.42188 12.6187V10.2632H4.03125C3.85547 10.2632 3.69141 10.1899 3.53906 10.0435C3.38672 9.89697 3.31055 9.66553 3.31055 9.34912V6.50146C3.31055 6.32568 3.37207 6.17334 3.49512 6.04443C3.61816 5.91553 3.76172 5.85107 3.92578 5.85107C4.10156 5.85107 4.25098 5.91553 4.37402 6.04443C4.49707 6.17334 4.55859 6.32568 4.55859 6.50146V8.9624H6.42188V6.50146C6.42188 6.32568 6.4834 6.17334 6.60645 6.04443C6.72949 5.91553 6.87305 5.85107 7.03711 5.85107C7.21289 5.85107 7.3623 5.91553 7.48535 6.04443C7.6084 6.17334 7.66992 6.32568 7.66992 6.50146V8.9624H9.5332V6.50146C9.5332 6.32568 9.59473 6.17334 9.71777 6.04443C9.84082 5.91553 9.98438 5.85107 10.1484 5.85107C10.3242 5.85107 10.4736 5.91553 10.5967 6.04443C10.7197 6.17334 10.7812 6.32568 10.7812 6.50146V8.9624H12.6445V6.50146C12.6445 6.32568 12.7061 6.17334 12.8291 6.04443C12.9521 5.91553 13.0957 5.85107 13.2598 5.85107C13.4355 5.85107 13.585 5.91553 13.708 6.04443C13.8311 6.17334 13.8926 6.32568 13.8926 6.50146V12.6187Z" fill="#EB2321"/>
</g>
<defs>
<clipPath id="clip0_61_43">
<rect width="18" height="18" fill="white" transform="matrix(1 0 0 -1 0.128906 18.5601)"/>
</clipPath>
</defs>
</svg>
