<svg width="43" height="25" viewBox="0 0 43 25" fill="none" xmlns="http://www.w3.org/2000/svg">
<g clip-path="url(#clip0_66_1813)">
<path d="M25.183 0.497379H8.72632C8.13244 0.497379 7.55028 0.692734 6.97984 1.08344C6.4094 1.47416 5.99916 1.93519 5.7491 2.46656L1.41222 11.3044C1.19342 11.742 1.05667 12.1445 1.00197 12.5117C0.947272 12.879 0.919922 13.2814 0.919922 13.719V18.7592C0.919922 19.2749 1.02541 19.7008 1.2364 20.0368C1.44738 20.3728 1.93577 20.5408 2.70156 20.5408H4.92861C5.02238 21.6661 5.45607 22.6077 6.22968 23.3657C7.00328 24.1236 7.93708 24.5026 9.03107 24.5026C10.1094 24.5026 11.0432 24.1236 11.8325 23.3657C12.6217 22.6077 13.0476 21.6661 13.1101 20.5408H27.9727C28.0665 21.6661 28.508 22.6077 29.2972 23.3657C30.0865 24.1236 31.0281 24.5026 32.1221 24.5026C33.2004 24.5026 34.1342 24.1236 34.9234 23.3657C35.7127 22.6077 36.1386 21.6661 36.2011 20.5408H40.4676C40.9677 20.5408 41.4131 20.4041 41.8039 20.1306C42.1946 19.8571 42.3899 19.3999 42.3899 18.7592V13.5315C42.3587 12.9845 42.1946 12.4375 41.8976 11.8905C41.6007 11.3435 40.9443 10.9919 39.9284 10.8356L32.0517 9.05394L28.1602 2.46656C27.8164 1.85705 27.3788 1.37648 26.8475 1.02484C26.3161 0.673199 25.7613 0.497379 25.183 0.497379ZM9.1014 22.3928C8.47626 22.3928 7.9488 22.1701 7.51902 21.7247C7.08924 21.2793 6.87435 20.7362 6.87435 20.0954C6.87435 19.4703 7.08924 18.9311 7.51902 18.4779C7.9488 18.0246 8.47626 17.798 9.1014 17.798C9.71091 17.798 10.2305 18.0246 10.6603 18.4779C11.0901 18.9311 11.305 19.4703 11.305 20.0954C11.305 20.7518 11.0901 21.2988 10.6603 21.7364C10.2305 22.174 9.71091 22.3928 9.1014 22.3928ZM32.1924 22.3928C32.1924 22.3928 32.1885 22.3928 32.1807 22.3928C32.1728 22.3928 32.1689 22.3928 32.1689 22.3928C31.5594 22.3928 31.0359 22.1701 30.5983 21.7247C30.1607 21.2793 29.9419 20.7362 29.9419 20.0954C29.9419 19.4703 30.1607 18.9311 30.5983 18.4779C31.0359 18.0246 31.5594 17.798 32.1689 17.798C32.7941 17.798 33.3098 18.0246 33.7162 18.4779C34.1225 18.9311 34.3257 19.4703 34.3257 20.0954C34.3257 20.7362 34.1147 21.2793 33.6927 21.7247C33.2707 22.1701 32.7706 22.3928 32.1924 22.3928ZM5.79599 8.98361L7.71828 4.50607C7.99959 3.9747 8.277 3.59571 8.5505 3.3691C8.82399 3.14249 9.20298 3.01355 9.68746 2.9823H15.7591V8.98361H5.79599ZM18.3612 8.98361C18.3612 8.96798 18.3612 8.6476 18.3612 8.02246C18.3612 7.3817 18.3612 6.69014 18.3612 5.94779C18.3612 5.20544 18.3612 4.5217 18.3612 3.89656C18.3612 3.28705 18.3612 2.9823 18.3612 2.9823H23.8702C24.4329 2.9823 24.9017 3.13077 25.2768 3.42771C25.6519 3.72465 25.9645 4.0841 26.2145 4.50607L28.8166 8.98361H18.3612Z" fill="white"/>
</g>
<defs>
<clipPath id="clip0_66_1813">
<rect width="41.47" height="25" fill="white" transform="matrix(1 0 0 -1 0.919922 25)"/>
</clipPath>
</defs>
</svg>
