<svg width="25" height="25" viewBox="0 0 25 25" fill="none" xmlns="http://www.w3.org/2000/svg">
<g clip-path="url(#clip0_66_1853)">
<path d="M20.1455 11.5156L21.8799 9.82812L20.0986 8.11719L18.3877 9.80469C18.0127 9.57031 17.6221 9.37109 17.2158 9.20703C16.8096 9.04297 16.3799 8.91406 15.9268 8.82031V6.42969H13.4424V8.82031C12.9893 8.91406 12.5596 9.04297 12.1533 9.20703C11.7471 9.37109 11.3643 9.57031 11.0049 9.80469L9.27051 8.11719L7.5127 9.82812L9.22363 11.5156C8.98926 11.875 8.78613 12.2539 8.61426 12.6523C8.44238 13.0508 8.31738 13.4688 8.23926 13.9062H5.77832V16.3203H8.23926C8.31738 16.7578 8.44238 17.1758 8.61426 17.5742C8.78613 17.9727 8.98926 18.3438 9.22363 18.6875L7.5127 20.375L9.27051 22.1094L11.0049 20.4219C11.3643 20.6562 11.7471 20.8555 12.1533 21.0195C12.5596 21.1836 12.9893 21.3125 13.4424 21.4062V23.7734H15.9268V21.4062C16.3799 21.3125 16.8096 21.1836 17.2158 21.0195C17.6221 20.8555 18.0127 20.6562 18.3877 20.4219L20.0986 22.1094L21.8799 20.375L20.1455 18.6875C20.3955 18.3438 20.6025 17.9727 20.7666 17.5742C20.9307 17.1758 21.0596 16.7578 21.1533 16.3203H23.5908V13.9062H21.1533C21.0596 13.4688 20.9307 13.0508 20.7666 12.6523C20.6025 12.2539 20.3955 11.875 20.1455 11.5156ZM14.6846 17.7734C13.9346 17.7734 13.2939 17.5117 12.7627 16.9883C12.2314 16.4648 11.9658 15.8359 11.9658 15.1016C11.9658 14.3672 12.2314 13.7422 12.7627 13.2266C13.2939 12.7109 13.9346 12.4531 14.6846 12.4531C15.4346 12.4531 16.0752 12.7109 16.6064 13.2266C17.1377 13.7422 17.4033 14.3672 17.4033 15.1016C17.4033 15.8359 17.1377 16.4648 16.6064 16.9883C16.0752 17.5117 15.4346 17.7734 14.6846 17.7734ZM15.0127 3.59375C16.0752 3.59375 17.0947 3.73438 18.0713 4.01562C19.0479 4.29688 19.958 4.6875 20.8018 5.1875L19.4658 6.57031L24.9502 7.0625L24.3643 1.48438L22.5596 3.35938C22.0127 3.01562 21.4424 2.71094 20.8486 2.44531C20.2549 2.17969 19.6416 1.95312 19.0088 1.76562C18.376 1.57812 17.7236 1.4375 17.0518 1.34375C16.3799 1.23438 15.7002 1.17969 15.0127 1.17969C13.0752 1.17969 11.2471 1.53906 9.52832 2.25781C7.8252 2.97656 6.34082 3.95312 5.0752 5.1875C3.80957 6.42188 2.80957 7.875 2.0752 9.54688C1.3252 11.2031 0.950195 12.9766 0.950195 14.8672C0.950195 15.6484 1.02051 16.4141 1.16113 17.1641C1.30176 17.9141 1.49707 18.6406 1.74707 19.3438C1.99707 20.0469 2.30957 20.7266 2.68457 21.3828C3.04395 22.0234 3.4502 22.6328 3.90332 23.2109L5.68457 21.5C4.98145 20.5781 4.42676 19.5547 4.02051 18.4297C3.61426 17.3047 3.41113 16.1172 3.41113 14.8672C3.41113 13.3047 3.71582 11.8438 4.3252 10.4844C4.93457 9.10938 5.7627 7.91406 6.80957 6.89844C7.85645 5.88281 9.08301 5.07812 10.4893 4.48438C11.8955 3.89062 13.4033 3.59375 15.0127 3.59375Z" fill="white"/>
</g>
<defs>
<clipPath id="clip0_66_1853">
<rect width="24" height="25" fill="white" transform="matrix(1 0 0 -1 0.973633 25)"/>
</clipPath>
</defs>
</svg>
