<svg width="25" height="25" viewBox="0 0 25 25" fill="none" xmlns="http://www.w3.org/2000/svg">
<g clip-path="url(#clip0_66_1843)">
<path d="M12.6455 0.5C10.9893 0.5 9.43457 0.820312 7.98145 1.46094C6.52832 2.08594 5.25879 2.94141 4.17285 4.02734C3.08691 5.11328 2.23145 6.38281 1.60645 7.83594C0.96582 9.28906 0.645508 10.8438 0.645508 12.5C0.645508 14.1562 0.96582 15.7109 1.60645 17.1641C2.23145 18.6172 3.08691 19.8867 4.17285 20.9727C5.25879 22.0586 6.52832 22.9141 7.98145 23.5391C9.43457 24.1797 10.9893 24.5 12.6455 24.5C14.3018 24.5 15.8564 24.1797 17.3096 23.5391C18.7627 22.9141 20.0322 22.0586 21.1182 20.9727C22.2041 19.8867 23.0596 18.6172 23.6846 17.1641C24.3252 15.7109 24.6455 14.1562 24.6455 12.5C24.6455 10.8438 24.3252 9.28906 23.6846 7.83594C23.0596 6.38281 22.2041 5.11328 21.1182 4.02734C20.0322 2.94141 18.7627 2.08594 17.3096 1.46094C15.8564 0.820312 14.3018 0.5 12.6455 0.5ZM18.9971 16.5781C18.9971 16.8125 18.915 17.0156 18.751 17.1875C18.5869 17.3594 18.3877 17.4453 18.1533 17.4453C17.9346 17.4453 17.7432 17.3594 17.5791 17.1875C17.415 17.0156 17.333 16.8125 17.333 16.5781V13.4375H14.8486V16.5781C14.8486 16.8125 14.7666 17.0156 14.6025 17.1875C14.4385 17.3594 14.2393 17.4453 14.0049 17.4453C13.7861 17.4453 13.5947 17.3594 13.4307 17.1875C13.2666 17.0156 13.1846 16.8125 13.1846 16.5781V13.4375H10.7002V16.5781C10.7002 16.8125 10.6182 17.0156 10.4541 17.1875C10.29 17.3594 10.0908 17.4453 9.85645 17.4453C9.6377 17.4453 9.44629 17.3594 9.28223 17.1875C9.11816 17.0156 9.03613 16.8125 9.03613 16.5781V13.4375H5.84863C5.61426 13.4375 5.39551 13.3398 5.19238 13.1445C4.98926 12.9492 4.8877 12.6406 4.8877 12.2188V8.42188C4.8877 8.1875 4.96973 7.98438 5.13379 7.8125C5.29785 7.64062 5.48926 7.55469 5.70801 7.55469C5.94238 7.55469 6.1416 7.64062 6.30566 7.8125C6.46973 7.98438 6.55176 8.1875 6.55176 8.42188V11.7031H9.03613V8.42188C9.03613 8.1875 9.11816 7.98438 9.28223 7.8125C9.44629 7.64062 9.6377 7.55469 9.85645 7.55469C10.0908 7.55469 10.29 7.64062 10.4541 7.8125C10.6182 7.98438 10.7002 8.1875 10.7002 8.42188V11.7031H13.1846V8.42188C13.1846 8.1875 13.2666 7.98438 13.4307 7.8125C13.5947 7.64062 13.7861 7.55469 14.0049 7.55469C14.2393 7.55469 14.4385 7.64062 14.6025 7.8125C14.7666 7.98438 14.8486 8.1875 14.8486 8.42188V11.7031H17.333V8.42188C17.333 8.1875 17.415 7.98438 17.5791 7.8125C17.7432 7.64062 17.9346 7.55469 18.1533 7.55469C18.3877 7.55469 18.5869 7.64062 18.751 7.8125C18.915 7.98438 18.9971 8.1875 18.9971 8.42188V16.5781Z" fill="white"/>
</g>
<defs>
<clipPath id="clip0_66_1843">
<rect width="24" height="25" fill="white" transform="matrix(1 0 0 -1 0.645508 25)"/>
</clipPath>
</defs>
</svg>
