<svg width="25" height="25" viewBox="0 0 25 25" fill="none" xmlns="http://www.w3.org/2000/svg">
<path d="M23.5723 0.640625C23.3848 0.515625 23.1738 0.472656 22.9395 0.511719C22.7051 0.550781 22.5254 0.671875 22.4004 0.875L20.502 3.64062C20.502 3.64062 20.498 3.64453 20.4902 3.65234C20.4824 3.66016 20.4785 3.66406 20.4785 3.66406L19.8457 4.625C19.627 4.96875 19.459 5.33594 19.3418 5.72656C19.2246 6.11719 19.166 6.51562 19.166 6.92188L19.1191 19.0156C19.1191 19.125 19.084 19.2148 19.0137 19.2852C18.9434 19.3555 18.8613 19.3906 18.7676 19.3906H18.7441C18.6816 19.3906 18.627 19.375 18.5801 19.3438C18.5332 19.3125 18.502 19.2891 18.4863 19.2734C18.4707 19.2578 18.4512 19.2266 18.4277 19.1797C18.4043 19.1328 18.3926 19.0781 18.3926 19.0156L18.416 12.125C18.416 11.4375 18.1777 10.8477 17.7012 10.3555C17.2246 9.86328 16.6426 9.60156 15.9551 9.57031L15.9785 4.64844C15.9785 4.35156 15.9199 4.06641 15.8027 3.79297C15.6855 3.51953 15.5176 3.27344 15.2988 3.05469C15.0957 2.83594 14.8535 2.66797 14.5723 2.55078C14.291 2.43359 14.002 2.375 13.7051 2.375L4.30664 2.35156C3.68164 2.35156 3.15039 2.57422 2.71289 3.01953C2.27539 3.46484 2.05664 4 2.05664 4.625L2.00977 21.3125C2.00977 21.7188 2.13086 22.0703 2.37305 22.3672C2.61523 22.6641 2.92383 22.8594 3.29883 22.9531V23.6094C3.29883 23.8438 3.38086 24.0469 3.54492 24.2188C3.70898 24.3906 3.9082 24.4766 4.14258 24.4766L13.752 24.5C13.877 24.5 13.9902 24.4766 14.0918 24.4297C14.1934 24.3828 14.2832 24.3203 14.3613 24.2422C14.4395 24.1641 14.502 24.0742 14.5488 23.9727C14.5957 23.8711 14.6191 23.7578 14.6191 23.6328V22.9766C14.9941 22.8984 15.3027 22.707 15.5449 22.4023C15.7871 22.0977 15.916 21.75 15.9316 21.3594L15.9551 11.3047C16.0488 11.3047 16.1387 11.3281 16.2246 11.375C16.3105 11.4219 16.3848 11.4766 16.4473 11.5391C16.5254 11.6172 16.584 11.707 16.623 11.8086C16.6621 11.9102 16.6816 12.0156 16.6816 12.125V19.0156C16.666 19.2969 16.7129 19.5625 16.8223 19.8125C16.9316 20.0625 17.0801 20.2891 17.2676 20.4922C17.4707 20.6797 17.6973 20.8281 17.9473 20.9375C18.1973 21.0469 18.4629 21.1016 18.7441 21.1016H18.7676C19.3457 21.1016 19.8379 20.8984 20.2441 20.4922C20.6504 20.0859 20.8535 19.6016 20.8535 19.0391L20.877 6.92188C20.877 6.82812 20.8848 6.73047 20.9004 6.62891C20.916 6.52734 20.9316 6.42969 20.9473 6.33594C21.0879 6.41406 21.2402 6.48047 21.4043 6.53516C21.5684 6.58984 21.7441 6.61719 21.9316 6.61719C22.416 6.61719 22.8379 6.44141 23.1973 6.08984C23.5566 5.73828 23.7363 5.3125 23.7363 4.8125C23.7363 4.57812 23.6895 4.35156 23.5957 4.13281C23.502 3.91406 23.3691 3.71875 23.1973 3.54688C23.1504 3.48438 23.0957 3.42969 23.0332 3.38281C22.9707 3.33594 22.9082 3.29688 22.8457 3.26562L23.8066 1.83594C23.9473 1.64844 23.9941 1.4375 23.9473 1.20312C23.9004 0.96875 23.7754 0.78125 23.5723 0.640625ZM12.8379 5.51562V9.17188L5.19727 9.14844L5.2207 5.49219L12.8379 5.51562ZM22.8691 4.8125C22.8691 5.07812 22.7754 5.30078 22.5879 5.48047C22.4004 5.66016 22.1816 5.75 21.9316 5.75C21.666 5.75 21.4434 5.66016 21.2637 5.48047C21.084 5.30078 20.9941 5.07812 20.9941 4.8125C20.9941 4.54688 21.084 4.32422 21.2637 4.14453C21.4434 3.96484 21.666 3.875 21.9316 3.875C22.1816 3.875 22.4004 3.96484 22.5879 4.14453C22.7754 4.32422 22.8691 4.54688 22.8691 4.8125Z" fill="white"/>
</svg>
