<svg width="134" height="25" viewBox="0 0 134 25" fill="none" xmlns="http://www.w3.org/2000/svg">
<g clip-path="url(#clip0_66_1862)">
<path d="M78.9502 18.4531L73.4658 4.67188C73.4189 4.59375 73.3682 4.51953 73.3135 4.44922C73.2588 4.37891 73.1924 4.3125 73.1143 4.25C73.0361 4.1875 72.9541 4.14062 72.8682 4.10938C72.7822 4.07812 72.7002 4.0625 72.6221 4.0625H68.1455C68.208 4.0625 68.2627 4.07422 68.3096 4.09766C68.3564 4.12109 68.4033 4.14844 68.4502 4.17969C68.4971 4.22656 68.5322 4.27344 68.5557 4.32031C68.5791 4.36719 68.5908 4.42188 68.5908 4.48438L68.8018 7.01562C68.8018 7.07812 68.7939 7.13281 68.7783 7.17969C68.7627 7.22656 68.7314 7.27344 68.6846 7.32031C68.6533 7.35156 68.6104 7.37891 68.5557 7.40234C68.501 7.42578 68.4502 7.4375 68.4033 7.4375H66.2002C66.1533 7.4375 66.1025 7.42578 66.0479 7.40234C65.9932 7.37891 65.9502 7.35156 65.9189 7.32031C65.8721 7.27344 65.8408 7.22656 65.8252 7.17969C65.8096 7.13281 65.8018 7.07812 65.8018 7.01562L66.0127 4.48438C66.0127 4.42188 66.0244 4.36719 66.0479 4.32031C66.0713 4.27344 66.1064 4.22656 66.1533 4.17969C66.2002 4.14844 66.2471 4.12109 66.2939 4.09766C66.3408 4.07422 66.3955 4.0625 66.458 4.0625H61.9814C61.9033 4.0625 61.8213 4.07812 61.7354 4.10938C61.6494 4.14062 61.5674 4.1875 61.4893 4.25C61.4111 4.3125 61.3447 4.37891 61.29 4.44922C61.2354 4.51953 61.1846 4.59375 61.1377 4.67188L55.6533 18.4531C55.5283 18.7188 55.4385 18.9805 55.3838 19.2383C55.3291 19.4961 55.3018 19.7422 55.3018 19.9766C55.3018 20.3047 55.3525 20.5469 55.4541 20.7031C55.5557 20.8594 55.708 20.9375 55.9111 20.9375H65.1924C65.1299 20.9375 65.0752 20.9258 65.0283 20.9023C64.9814 20.8789 64.9424 20.8516 64.9111 20.8203C64.8643 20.7734 64.833 20.7266 64.8174 20.6797C64.8018 20.6328 64.7939 20.5781 64.7939 20.5156L65.0518 17.1406C65.0674 17.0781 65.0869 17.0234 65.1104 16.9766C65.1338 16.9297 65.1689 16.8828 65.2158 16.8359C65.2471 16.8047 65.29 16.7773 65.3447 16.7539C65.3994 16.7305 65.4502 16.7188 65.4971 16.7188H69.1064C69.1533 16.7188 69.2041 16.7305 69.2588 16.7539C69.3135 16.7773 69.3564 16.8047 69.3877 16.8359C69.4346 16.8828 69.4697 16.9297 69.4932 16.9766C69.5166 17.0234 69.5361 17.0781 69.5518 17.1406L69.8096 20.5156C69.8096 20.5781 69.8018 20.6328 69.7861 20.6797C69.7705 20.7266 69.7393 20.7734 69.6924 20.8203C69.6611 20.8516 69.6221 20.8789 69.5752 20.9023C69.5283 20.9258 69.4736 20.9375 69.4111 20.9375H78.6924C78.8955 20.9375 79.0479 20.8594 79.1494 20.7031C79.251 20.5469 79.3018 20.3047 79.3018 19.9766C79.3018 19.7422 79.2744 19.4961 79.2197 19.2383C79.165 18.9805 79.0752 18.7188 78.9502 18.4531ZM69.2939 13.8125C69.2939 13.875 69.2861 13.9258 69.2705 13.9648C69.2549 14.0039 69.2236 14.0469 69.1768 14.0938C69.1455 14.125 69.1064 14.1484 69.0596 14.1641C69.0127 14.1797 68.9658 14.1875 68.9189 14.1875H65.6846C65.6377 14.1875 65.5908 14.1797 65.5439 14.1641C65.4971 14.1484 65.458 14.125 65.4268 14.0938C65.3799 14.0469 65.3486 14.0039 65.333 13.9648C65.3174 13.9258 65.3096 13.875 65.3096 13.8125V13.7656L65.6377 9.54688C65.6377 9.48438 65.6494 9.42969 65.6729 9.38281C65.6963 9.33594 65.7314 9.28906 65.7783 9.24219C65.8252 9.21094 65.8721 9.18359 65.9189 9.16016C65.9658 9.13672 66.0205 9.125 66.083 9.125H68.5205C68.583 9.125 68.6377 9.13672 68.6846 9.16016C68.7314 9.18359 68.7783 9.21094 68.8252 9.24219C68.8721 9.28906 68.9072 9.33594 68.9307 9.38281C68.9541 9.42969 68.9658 9.48438 68.9658 9.54688L69.2939 13.7656V13.8125Z" fill="white"/>
</g>
<defs>
<clipPath id="clip0_66_1862">
<rect width="24" height="25" fill="white" transform="matrix(1 0 0 -1 55.3018 25)"/>
</clipPath>
</defs>
</svg>
