<svg width="25" height="25" viewBox="0 0 25 25" fill="none" xmlns="http://www.w3.org/2000/svg">
<g clip-path="url(#clip0_66_1863)">
<path d="M23.9502 18.4531L18.4658 4.67188C18.4189 4.59375 18.3682 4.51953 18.3135 4.44922C18.2588 4.37891 18.1924 4.3125 18.1143 4.25C18.0361 4.1875 17.9541 4.14062 17.8682 4.10938C17.7822 4.07812 17.7002 4.0625 17.6221 4.0625H13.1455C13.208 4.0625 13.2627 4.07422 13.3096 4.09766C13.3564 4.12109 13.4033 4.14844 13.4502 4.17969C13.4971 4.22656 13.5322 4.27344 13.5557 4.32031C13.5791 4.36719 13.5908 4.42188 13.5908 4.48438L13.8018 7.01562C13.8018 7.07812 13.7939 7.13281 13.7783 7.17969C13.7627 7.22656 13.7314 7.27344 13.6846 7.32031C13.6533 7.35156 13.6104 7.37891 13.5557 7.40234C13.501 7.42578 13.4502 7.4375 13.4033 7.4375H11.2002C11.1533 7.4375 11.1025 7.42578 11.0479 7.40234C10.9932 7.37891 10.9502 7.35156 10.9189 7.32031C10.8721 7.27344 10.8408 7.22656 10.8252 7.17969C10.8096 7.13281 10.8018 7.07812 10.8018 7.01562L11.0127 4.48438C11.0127 4.42188 11.0244 4.36719 11.0479 4.32031C11.0713 4.27344 11.1064 4.22656 11.1533 4.17969C11.2002 4.14844 11.2471 4.12109 11.2939 4.09766C11.3408 4.07422 11.3955 4.0625 11.458 4.0625H6.98145C6.90332 4.0625 6.82129 4.07812 6.73535 4.10938C6.64941 4.14062 6.56738 4.1875 6.48926 4.25C6.41113 4.3125 6.34473 4.37891 6.29004 4.44922C6.23535 4.51953 6.18457 4.59375 6.1377 4.67188L0.65332 18.4531C0.52832 18.7188 0.438477 18.9805 0.383789 19.2383C0.329102 19.4961 0.301758 19.7422 0.301758 19.9766C0.301758 20.3047 0.352539 20.5469 0.454102 20.7031C0.555664 20.8594 0.708008 20.9375 0.911133 20.9375H10.1924C10.1299 20.9375 10.0752 20.9258 10.0283 20.9023C9.98145 20.8789 9.94238 20.8516 9.91113 20.8203C9.86426 20.7734 9.83301 20.7266 9.81738 20.6797C9.80176 20.6328 9.79395 20.5781 9.79395 20.5156L10.0518 17.1406C10.0674 17.0781 10.0869 17.0234 10.1104 16.9766C10.1338 16.9297 10.1689 16.8828 10.2158 16.8359C10.2471 16.8047 10.29 16.7773 10.3447 16.7539C10.3994 16.7305 10.4502 16.7188 10.4971 16.7188H14.1064C14.1533 16.7188 14.2041 16.7305 14.2588 16.7539C14.3135 16.7773 14.3564 16.8047 14.3877 16.8359C14.4346 16.8828 14.4697 16.9297 14.4932 16.9766C14.5166 17.0234 14.5361 17.0781 14.5518 17.1406L14.8096 20.5156C14.8096 20.5781 14.8018 20.6328 14.7861 20.6797C14.7705 20.7266 14.7393 20.7734 14.6924 20.8203C14.6611 20.8516 14.6221 20.8789 14.5752 20.9023C14.5283 20.9258 14.4736 20.9375 14.4111 20.9375H23.6924C23.8955 20.9375 24.0479 20.8594 24.1494 20.7031C24.251 20.5469 24.3018 20.3047 24.3018 19.9766C24.3018 19.7422 24.2744 19.4961 24.2197 19.2383C24.165 18.9805 24.0752 18.7188 23.9502 18.4531ZM14.2939 13.8125C14.2939 13.875 14.2861 13.9258 14.2705 13.9648C14.2549 14.0039 14.2236 14.0469 14.1768 14.0938C14.1455 14.125 14.1064 14.1484 14.0596 14.1641C14.0127 14.1797 13.9658 14.1875 13.9189 14.1875H10.6846C10.6377 14.1875 10.5908 14.1797 10.5439 14.1641C10.4971 14.1484 10.458 14.125 10.4268 14.0938C10.3799 14.0469 10.3486 14.0039 10.333 13.9648C10.3174 13.9258 10.3096 13.875 10.3096 13.8125V13.7656L10.6377 9.54688C10.6377 9.48438 10.6494 9.42969 10.6729 9.38281C10.6963 9.33594 10.7314 9.28906 10.7783 9.24219C10.8252 9.21094 10.8721 9.18359 10.9189 9.16016C10.9658 9.13672 11.0205 9.125 11.083 9.125H13.5205C13.583 9.125 13.6377 9.13672 13.6846 9.16016C13.7314 9.18359 13.7783 9.21094 13.8252 9.24219C13.8721 9.28906 13.9072 9.33594 13.9307 9.38281C13.9541 9.42969 13.9658 9.48438 13.9658 9.54688L14.2939 13.7656V13.8125Z" fill="white"/>
</g>
<defs>
<clipPath id="clip0_66_1863">
<rect width="24" height="25" fill="white" transform="matrix(1 0 0 -1 0.301758 25)"/>
</clipPath>
</defs>
</svg>
