<svg width="25" height="25" viewBox="0 0 25 25" fill="none" xmlns="http://www.w3.org/2000/svg">
<g clip-path="url(#clip0_66_1833)">
<path d="M10.1982 6.21875H11.4873L11.6045 7.17969H14.5342L14.6279 6.21875H15.9404C16.0811 6.21875 16.1982 6.17188 16.292 6.07812C16.3857 5.98438 16.4326 5.86719 16.4326 5.72656V4.41406C16.4326 4.28906 16.3857 4.17578 16.292 4.07422C16.1982 3.97266 16.0811 3.92188 15.9404 3.92188H10.1982C10.0576 3.92188 9.94043 3.97266 9.84668 4.07422C9.75293 4.17578 9.70605 4.28906 9.70605 4.41406V5.72656C9.70605 5.86719 9.75293 5.98438 9.84668 6.07812C9.94043 6.17188 10.0576 6.21875 10.1982 6.21875ZM23.1826 9.89844H21.4717C21.3467 9.89844 21.2373 9.94531 21.1436 10.0391C21.0498 10.1328 21.0029 10.25 21.0029 10.3906V11.8203H19.7842V8.75C19.7686 8.51562 19.7139 8.34766 19.6201 8.24609C19.5264 8.14453 19.3779 8.09375 19.1748 8.09375H10.0342C9.75293 8.09375 9.50293 8.14062 9.28418 8.23438C9.06543 8.32812 8.87012 8.49219 8.69824 8.72656C8.43262 9.07031 8.15918 9.40234 7.87793 9.72266C7.59668 10.043 7.31543 10.3594 7.03418 10.6719H4.97168C4.81543 10.6719 4.67871 10.7109 4.56152 10.7891C4.44434 10.8672 4.37793 11.0312 4.3623 11.2812V13.0156H3.12012V11.6328C3.12012 11.4922 3.07324 11.375 2.97949 11.2812C2.88574 11.1875 2.76855 11.1406 2.62793 11.1406H1.43262C1.29199 11.1406 1.1748 11.1875 1.08105 11.2812C0.987305 11.375 0.94043 11.4922 0.94043 11.6328V17.4688C0.94043 17.6094 0.987305 17.7266 1.08105 17.8203C1.1748 17.9141 1.29199 17.9609 1.43262 17.9609H2.62793C2.76855 17.9609 2.88574 17.9141 2.97949 17.8203C3.07324 17.7266 3.12012 17.6094 3.12012 17.4688V16.0859H4.38574V17.8906C4.38574 18.0938 4.4248 18.2422 4.50293 18.3359C4.58105 18.4297 4.7373 18.4766 4.97168 18.4766H7.05762C7.37012 18.8516 7.67871 19.2148 7.9834 19.5664C8.28809 19.918 8.58887 20.2812 8.88574 20.6562C9.01074 20.7969 9.15527 20.9023 9.31934 20.9727C9.4834 21.043 9.65137 21.0781 9.82324 21.0781C10.8232 21.0625 11.8193 21.0547 12.8115 21.0547C13.8037 21.0547 14.7998 21.0625 15.7998 21.0781C15.9717 21.0781 16.1436 21.043 16.3154 20.9727C16.4873 20.9023 16.6514 20.7891 16.8076 20.6328C17.2607 20.1797 17.6787 19.7578 18.0615 19.3672C18.4443 18.9766 18.7686 18.6172 19.0342 18.2891C19.2529 18.0234 19.4326 17.7891 19.5732 17.5859C19.7139 17.3828 19.7842 17.0391 19.7842 16.5547V16.3438H21.0029V17.7969C21.0029 17.9219 21.0498 18.0312 21.1436 18.125C21.2373 18.2188 21.3545 18.2656 21.4951 18.2656H23.1826C23.3232 18.2656 23.4404 18.2188 23.5342 18.125C23.6279 18.0312 23.6748 17.9219 23.6748 17.7969V10.3906C23.6748 10.25 23.6279 10.1328 23.5342 10.0391C23.4404 9.94531 23.3232 9.89844 23.1826 9.89844ZM17.042 10.7656H10.5498L9.70605 11.75C9.65918 11.7969 9.60449 11.8359 9.54199 11.8672C9.47949 11.8984 9.40918 11.9141 9.33105 11.9141C9.28418 11.9141 9.2334 11.9023 9.17871 11.8789C9.12402 11.8555 9.07324 11.8281 9.02637 11.7969C8.91699 11.7031 8.8584 11.5898 8.85059 11.457C8.84277 11.3242 8.88574 11.2031 8.97949 11.0938L9.96387 9.94531C10.0107 9.89844 10.0654 9.85938 10.1279 9.82812C10.1904 9.79688 10.2607 9.78125 10.3389 9.78125H17.042C17.1826 9.78125 17.2998 9.82812 17.3936 9.92188C17.4873 10.0156 17.5342 10.1328 17.5342 10.2734C17.5342 10.4141 17.4873 10.5312 17.3936 10.625C17.2998 10.7188 17.1826 10.7656 17.042 10.7656Z" fill="white"/>
</g>
<defs>
<clipPath id="clip0_66_1833">
<rect width="24" height="25" fill="white" transform="matrix(1 0 0 -1 0.307617 25)"/>
</clipPath>
</defs>
</svg>
