<svg width="23" height="17" viewBox="0 0 23 17" fill="none" xmlns="http://www.w3.org/2000/svg">
<path d="M19.2922 6C21.1555 6 22.6672 7.51172 22.6672 9.375V12.1875C22.6672 12.5039 22.3859 12.75 22.1047 12.75H20.4172C20.4172 14.6484 18.9055 16.125 17.0422 16.125C15.1438 16.125 13.6672 14.6484 13.6672 12.75H9.16719C9.16719 14.6484 7.65547 16.125 5.79219 16.125C3.89375 16.125 2.41719 14.6484 2.41719 12.75H0.729688C0.413281 12.75 0.167188 12.5039 0.167188 12.1875V8.25C0.167188 7.23047 0.870313 6.35156 1.85469 6.10547L3.50703 1.81641C3.85859 0.9375 4.70234 0.375 5.61641 0.375H13.1398C13.843 0.410156 14.4758 0.726562 14.8977 1.25391L18.7297 6H19.2922ZM5.79219 14.4375C6.70625 14.4375 7.47969 13.6992 7.47969 12.75C7.47969 11.8359 6.70625 11.0625 5.79219 11.0625C4.84297 11.0625 4.10469 11.8359 4.10469 12.75C4.10469 13.6992 4.84297 14.4375 5.79219 14.4375ZM8.32344 6V2.625H5.61641L4.24531 6H8.32344ZM10.0109 6H15.8469L13.1398 2.625H10.0109V6ZM17.0422 14.4375C17.9563 14.4375 18.7297 13.6992 18.7297 12.75C18.7297 11.8359 17.9563 11.0625 17.0422 11.0625C16.093 11.0625 15.3547 11.8359 15.3547 12.75C15.3547 13.6992 16.093 14.4375 17.0422 14.4375Z" fill="#EB2321"/>
</svg>
