<svg width="16" height="19" viewBox="0 0 16 19" fill="none" xmlns="http://www.w3.org/2000/svg">
<path d="M0.192187 16.5625V7H15.9422V16.5625C15.9422 17.5117 15.1687 18.25 14.2547 18.25H1.87969C0.930469 18.25 0.192187 17.5117 0.192187 16.5625ZM11.4422 9.67188V11.0781C11.4422 11.3242 11.618 11.5 11.8641 11.5H13.2703C13.4812 11.5 13.6922 11.3242 13.6922 11.0781V9.67188C13.6922 9.46094 13.4812 9.25 13.2703 9.25H11.8641C11.618 9.25 11.4422 9.46094 11.4422 9.67188ZM11.4422 14.1719V15.5781C11.4422 15.8242 11.618 16 11.8641 16H13.2703C13.4812 16 13.6922 15.8242 13.6922 15.5781V14.1719C13.6922 13.9609 13.4812 13.75 13.2703 13.75H11.8641C11.618 13.75 11.4422 13.9609 11.4422 14.1719ZM6.94219 9.67188V11.0781C6.94219 11.3242 7.11797 11.5 7.36406 11.5H8.77031C8.98125 11.5 9.19219 11.3242 9.19219 11.0781V9.67188C9.19219 9.46094 8.98125 9.25 8.77031 9.25H7.36406C7.11797 9.25 6.94219 9.46094 6.94219 9.67188ZM6.94219 14.1719V15.5781C6.94219 15.8242 7.11797 16 7.36406 16H8.77031C8.98125 16 9.19219 15.8242 9.19219 15.5781V14.1719C9.19219 13.9609 8.98125 13.75 8.77031 13.75H7.36406C7.11797 13.75 6.94219 13.9609 6.94219 14.1719ZM2.44219 9.67188V11.0781C2.44219 11.3242 2.61797 11.5 2.86406 11.5H4.27031C4.48125 11.5 4.69219 11.3242 4.69219 11.0781V9.67188C4.69219 9.46094 4.48125 9.25 4.27031 9.25H2.86406C2.61797 9.25 2.44219 9.46094 2.44219 9.67188ZM2.44219 14.1719V15.5781C2.44219 15.8242 2.61797 16 2.86406 16H4.27031C4.48125 16 4.69219 15.8242 4.69219 15.5781V14.1719C4.69219 13.9609 4.48125 13.75 4.27031 13.75H2.86406C2.61797 13.75 2.44219 13.9609 2.44219 14.1719ZM14.2547 2.5C15.1687 2.5 15.9422 3.27344 15.9422 4.1875V5.875H0.192187V4.1875C0.192187 3.27344 0.930469 2.5 1.87969 2.5H3.56719V0.8125C3.56719 0.53125 3.81328 0.25 4.12969 0.25H5.25469C5.53594 0.25 5.81719 0.53125 5.81719 0.8125V2.5H10.3172V0.8125C10.3172 0.53125 10.5633 0.25 10.8797 0.25H12.0047C12.2859 0.25 12.5672 0.53125 12.5672 0.8125V2.5H14.2547Z" fill="#EB2321"/>
</svg>
