<svg width="18" height="18" viewBox="0 0 18 18" fill="none" xmlns="http://www.w3.org/2000/svg">
<g clip-path="url(#clip0_66_405)">
<path d="M9 0C7.75781 0 6.5918 0.234375 5.50195 0.703125C4.41211 1.17188 3.45996 1.81348 2.64551 2.62793C1.83105 3.44238 1.18359 4.40039 0.703125 5.50195C0.234375 6.5918 0 7.75781 0 9C0 10.2422 0.234375 11.4082 0.703125 12.498C1.18359 13.5996 1.83105 14.5576 2.64551 15.3721C3.45996 16.1865 4.41211 16.8281 5.50195 17.2969C6.5918 17.7656 7.75781 18 9 18C10.2422 18 11.4141 17.7656 12.5156 17.2969C13.6055 16.8281 14.5576 16.1865 15.3721 15.3721C16.1865 14.5576 16.8281 13.5996 17.2969 12.498C17.7773 11.4082 18.0176 10.2422 18.0176 9C18.0176 7.75781 17.7773 6.5918 17.2969 5.50195C16.8281 4.40039 16.1865 3.44238 15.3721 2.62793C14.5576 1.81348 13.6055 1.17188 12.5156 0.703125C11.4141 0.234375 10.2422 0 9 0ZM9 16.207V1.79297C9.99609 1.79297 10.9336 1.98633 11.8125 2.37305C12.6797 2.74805 13.4414 3.26074 14.0977 3.91113C14.7539 4.56152 15.2695 5.32617 15.6445 6.20508C16.0195 7.07227 16.207 8.00391 16.207 9C16.207 9.99609 16.0195 10.9277 15.6445 11.7949C15.2695 12.6738 14.7539 13.4385 14.0977 14.0889C13.4414 14.7393 12.6797 15.252 11.8125 15.627C10.9336 16.0137 9.99609 16.207 9 16.207Z" fill="#EB2321"/>
</g>
<defs>
<clipPath id="clip0_66_405">
<rect width="18" height="18" fill="white" transform="matrix(1 0 0 -1 0 18)"/>
</clipPath>
</defs>
</svg>
