<svg width="19" height="14" viewBox="0 0 19 14" fill="none" xmlns="http://www.w3.org/2000/svg">
<path d="M18.327 4.26758C18.6082 4.26758 18.8191 4.54883 18.7488 4.79492L18.5379 5.63867C18.5027 5.84961 18.327 5.95508 18.1512 5.95508H17.4129C17.9051 6.37695 18.2215 6.97461 18.2215 7.64258V9.33008C18.2215 9.92773 17.9754 10.4199 17.659 10.8066V12.7051C17.659 13.3379 17.1316 13.8301 16.534 13.8301H15.409C14.7762 13.8301 14.284 13.3379 14.284 12.7051V11.5801H5.28399V12.7051C5.28399 13.3379 4.75664 13.8301 4.15899 13.8301H3.03399C2.40117 13.8301 1.90899 13.3379 1.90899 12.7051V10.8066C1.55742 10.4199 1.34649 9.92773 1.34649 9.33008V7.64258C1.34649 6.97461 1.62774 6.37695 2.11992 5.95508H1.4168C1.20586 5.95508 1.03008 5.84961 0.994923 5.63867L0.783985 4.79492C0.713673 4.54883 0.92461 4.26758 1.20586 4.26758H3.28008L3.87774 2.82617C4.47539 1.31445 5.9168 0.330078 7.53399 0.330078H11.9988C13.616 0.330078 15.0574 1.31445 15.6551 2.82617L16.2527 4.26758H18.327ZM5.95195 3.66992L5.28399 5.39258H14.284L13.5809 3.66992C13.2996 3.00195 12.702 2.58008 11.9988 2.58008H7.53399C6.83086 2.58008 6.2332 3.00195 5.95195 3.66992ZM4.15899 9.33008C4.82695 9.33008 5.84649 9.43555 5.84649 8.76758C5.84649 8.09961 4.82695 7.08008 4.15899 7.08008C3.45586 7.08008 3.03399 7.53711 3.03399 8.20508C3.03399 8.9082 3.45586 9.33008 4.15899 9.33008ZM15.409 9.33008C16.077 9.33008 16.534 8.9082 16.534 8.20508C16.534 7.53711 16.077 7.08008 15.409 7.08008C14.7059 7.08008 13.7215 8.09961 13.7215 8.76758C13.7215 9.43555 14.7059 9.33008 15.409 9.33008Z" fill="#EB2321"/>
</svg>
