<svg width="18" height="18" viewBox="0 0 18 18" fill="none" xmlns="http://www.w3.org/2000/svg">
<g clip-path="url(#clip0_66_402)">
<path d="M9 0C7.75781 0 6.5918 0.240234 5.50195 0.720703C4.41211 1.18945 3.45996 1.83105 2.64551 2.64551C1.83105 3.45996 1.18945 4.41211 0.720703 5.50195C0.240234 6.5918 0 7.75781 0 9C0 10.2422 0.240234 11.4082 0.720703 12.498C1.18945 13.5879 1.83105 14.54 2.64551 15.3545C3.45996 16.1689 4.41211 16.8105 5.50195 17.2793C6.5918 17.7598 7.75781 18 9 18C10.2422 18 11.4082 17.7598 12.498 17.2793C13.5879 16.8105 14.54 16.1689 15.3545 15.3545C16.1689 14.54 16.8105 13.5879 17.2793 12.498C17.7598 11.4082 18 10.2422 18 9C18 7.75781 17.7598 6.5918 17.2793 5.50195C16.8105 4.41211 16.1689 3.45996 15.3545 2.64551C14.54 1.83105 13.5879 1.18945 12.498 0.720703C11.4082 0.240234 10.2422 0 9 0ZM13.7637 12.0586C13.7637 12.2344 13.7021 12.3867 13.5791 12.5156C13.4561 12.6445 13.3066 12.709 13.1309 12.709C12.9668 12.709 12.8232 12.6445 12.7002 12.5156C12.5771 12.3867 12.5156 12.2344 12.5156 12.0586V9.70312H10.6523V12.0586C10.6523 12.2344 10.5908 12.3867 10.4678 12.5156C10.3447 12.6445 10.1953 12.709 10.0195 12.709C9.85547 12.709 9.71191 12.6445 9.58887 12.5156C9.46582 12.3867 9.4043 12.2344 9.4043 12.0586V9.70312H7.54102V12.0586C7.54102 12.2344 7.47949 12.3867 7.35645 12.5156C7.2334 12.6445 7.08398 12.709 6.9082 12.709C6.74414 12.709 6.60059 12.6445 6.47754 12.5156C6.35449 12.3867 6.29297 12.2344 6.29297 12.0586V9.70312H3.90234C3.72656 9.70312 3.5625 9.62988 3.41016 9.4834C3.25781 9.33691 3.18164 9.10547 3.18164 8.78906V5.94141C3.18164 5.76562 3.24316 5.61328 3.36621 5.48438C3.48926 5.35547 3.63281 5.29102 3.79688 5.29102C3.97266 5.29102 4.12207 5.35547 4.24512 5.48438C4.36816 5.61328 4.42969 5.76562 4.42969 5.94141V8.40234H6.29297V5.94141C6.29297 5.76562 6.35449 5.61328 6.47754 5.48438C6.60059 5.35547 6.74414 5.29102 6.9082 5.29102C7.08398 5.29102 7.2334 5.35547 7.35645 5.48438C7.47949 5.61328 7.54102 5.76562 7.54102 5.94141V8.40234H9.4043V5.94141C9.4043 5.76562 9.46582 5.61328 9.58887 5.48438C9.71191 5.35547 9.85547 5.29102 10.0195 5.29102C10.1953 5.29102 10.3447 5.35547 10.4678 5.48438C10.5908 5.61328 10.6523 5.76562 10.6523 5.94141V8.40234H12.5156V5.94141C12.5156 5.76562 12.5771 5.61328 12.7002 5.48438C12.8232 5.35547 12.9668 5.29102 13.1309 5.29102C13.3066 5.29102 13.4561 5.35547 13.5791 5.48438C13.7021 5.61328 13.7637 5.76562 13.7637 5.94141V12.0586Z" fill="#EB2321"/>
</g>
<defs>
<clipPath id="clip0_66_402">
<rect width="18" height="18" fill="white" transform="matrix(1 0 0 -1 0 18)"/>
</clipPath>
</defs>
</svg>
