<svg width="18" height="18" viewBox="0 0 18 18" fill="none" xmlns="http://www.w3.org/2000/svg">
<g clip-path="url(#clip0_66_408)">
<path d="M16.9453 0.105469C16.8047 0.0117188 16.6465 -0.0205078 16.4707 0.00878906C16.2949 0.0380859 16.1602 0.128906 16.0664 0.28125L14.6426 2.35547C14.6426 2.35547 14.6396 2.3584 14.6338 2.36426C14.6279 2.37012 14.625 2.37305 14.625 2.37305L14.1504 3.09375C13.9863 3.35156 13.8604 3.62695 13.7725 3.91992C13.6846 4.21289 13.6406 4.51172 13.6406 4.81641L13.6055 13.8867C13.6055 13.9688 13.5791 14.0361 13.5264 14.0889C13.4736 14.1416 13.4121 14.168 13.3418 14.168H13.3242C13.2773 14.168 13.2363 14.1562 13.2012 14.1328C13.166 14.1094 13.1426 14.0918 13.1309 14.0801C13.1191 14.0684 13.1045 14.0449 13.0869 14.0098C13.0693 13.9746 13.0605 13.9336 13.0605 13.8867L13.0781 8.71875C13.0781 8.20312 12.8994 7.76074 12.542 7.3916C12.1846 7.02246 11.748 6.82617 11.2324 6.80273L11.25 3.11133C11.25 2.88867 11.2061 2.6748 11.1182 2.46973C11.0303 2.26465 10.9043 2.08008 10.7402 1.91602C10.5879 1.75195 10.4062 1.62598 10.1953 1.53809C9.98438 1.4502 9.76758 1.40625 9.54492 1.40625L2.49609 1.38867C2.02734 1.38867 1.62891 1.55566 1.30078 1.88965C0.972656 2.22363 0.808594 2.625 0.808594 3.09375L0.773438 15.6094C0.773438 15.9141 0.864258 16.1777 1.0459 16.4004C1.22754 16.623 1.45898 16.7695 1.74023 16.8398V17.332C1.74023 17.5078 1.80176 17.6602 1.9248 17.7891C2.04785 17.918 2.19727 17.9824 2.37305 17.9824L9.58008 18C9.67383 18 9.75879 17.9824 9.83496 17.9473C9.91113 17.9121 9.97852 17.8652 10.0371 17.8066C10.0957 17.748 10.1426 17.6807 10.1777 17.6045C10.2129 17.5283 10.2305 17.4434 10.2305 17.3496V16.8574C10.5117 16.7988 10.7432 16.6553 10.9248 16.4268C11.1064 16.1982 11.2031 15.9375 11.2148 15.6445L11.2324 8.10352C11.3027 8.10352 11.3701 8.12109 11.4346 8.15625C11.499 8.19141 11.5547 8.23242 11.6016 8.2793C11.6602 8.33789 11.7041 8.40527 11.7334 8.48145C11.7627 8.55762 11.7773 8.63672 11.7773 8.71875V13.8867C11.7656 14.0977 11.8008 14.2969 11.8828 14.4844C11.9648 14.6719 12.0762 14.8418 12.2168 14.9941C12.3691 15.1348 12.5391 15.2461 12.7266 15.3281C12.9141 15.4102 13.1133 15.4512 13.3242 15.4512H13.3418C13.7754 15.4512 14.1445 15.2988 14.4492 14.9941C14.7539 14.6895 14.9062 14.3262 14.9062 13.9043L14.9238 4.81641C14.9238 4.74609 14.9297 4.67285 14.9414 4.59668C14.9531 4.52051 14.9648 4.44727 14.9766 4.37695C15.082 4.43555 15.1963 4.48535 15.3193 4.52637C15.4424 4.56738 15.5742 4.58789 15.7148 4.58789C16.0781 4.58789 16.3945 4.45605 16.6641 4.19238C16.9336 3.92871 17.0684 3.60938 17.0684 3.23438C17.0684 3.05859 17.0332 2.88867 16.9629 2.72461C16.8926 2.56055 16.793 2.41406 16.6641 2.28516C16.6289 2.23828 16.5879 2.19727 16.541 2.16211C16.4941 2.12695 16.4473 2.09766 16.4004 2.07422L17.1211 1.00195C17.2266 0.861328 17.2617 0.703125 17.2266 0.527344C17.1914 0.351562 17.0977 0.210938 16.9453 0.105469ZM8.89453 3.76172V6.50391L3.16406 6.48633L3.18164 3.74414L8.89453 3.76172ZM16.418 3.23438C16.418 3.43359 16.3477 3.60059 16.207 3.73535C16.0664 3.87012 15.9023 3.9375 15.7148 3.9375C15.5156 3.9375 15.3486 3.87012 15.2139 3.73535C15.0791 3.60059 15.0117 3.43359 15.0117 3.23438C15.0117 3.03516 15.0791 2.86816 15.2139 2.7334C15.3486 2.59863 15.5156 2.53125 15.7148 2.53125C15.9023 2.53125 16.0664 2.59863 16.207 2.7334C16.3477 2.86816 16.418 3.03516 16.418 3.23438Z" fill="#EB2321"/>
</g>
<defs>
<clipPath id="clip0_66_408">
<rect width="18" height="18" fill="white" transform="matrix(1 0 0 -1 0 18)"/>
</clipPath>
</defs>
</svg>
