<svg width="32" height="18" viewBox="0 0 32 18" fill="none" xmlns="http://www.w3.org/2000/svg">
<path d="M30.9677 0H1.03226C0.758486 0 0.495927 0.105357 0.302341 0.292893C0.108755 0.48043 0 0.734784 0 1V17C0 17.2652 0.108755 17.5196 0.302341 17.7071C0.495927 17.8946 0.758486 18 1.03226 18H30.9677C31.2415 18 31.5041 17.8946 31.6977 17.7071C31.8912 17.5196 32 17.2652 32 17V1C32 0.734784 31.8912 0.48043 31.6977 0.292893C31.5041 0.105357 31.2415 0 30.9677 0ZM10.5806 12.5C10.5799 12.7211 10.5035 12.9358 10.3634 13.1104C10.2234 13.285 10.0275 13.4097 9.80645 13.465C9.71739 13.4889 9.62532 13.5007 9.5329 13.5C9.35276 13.4989 9.17604 13.4522 9.0203 13.3645C8.86456 13.2768 8.73523 13.1511 8.64516 13L6.26581 9.125V12.5C6.26581 12.7652 6.15705 13.0196 5.96346 13.2071C5.76988 13.3946 5.50732 13.5 5.23355 13.5C4.95978 13.5 4.69722 13.3946 4.50363 13.2071C4.31005 13.0196 4.20129 12.7652 4.20129 12.5V5.5C4.2054 5.2833 4.28207 5.07375 4.41976 4.90292C4.55745 4.73209 4.7487 4.60922 4.96473 4.55281C5.18075 4.4964 5.40984 4.50951 5.6175 4.59017C5.82516 4.67082 6.00016 4.81465 6.11613 5L8.50064 8.875V5.5C8.50064 5.23478 8.6094 4.98043 8.80299 4.79289C8.99657 4.60536 9.25913 4.5 9.5329 4.5C9.80667 4.5 10.0692 4.60536 10.2628 4.79289C10.4564 4.98043 10.5652 5.23478 10.5652 5.5L10.5806 12.5ZM15.4839 8C15.7576 8 16.0202 8.10536 16.2138 8.29289C16.4074 8.48043 16.5161 8.73478 16.5161 9C16.5161 9.26522 16.4074 9.51957 16.2138 9.70711C16.0202 9.89464 15.7576 10 15.4839 10H14.1935V11.5H17.2903C17.5641 11.5 17.8267 11.6054 18.0202 11.7929C18.2138 11.9804 18.3226 12.2348 18.3226 12.5C18.3226 12.7652 18.2138 13.0196 18.0202 13.2071C17.8267 13.3946 17.5641 13.5 17.2903 13.5H13.1613C12.8875 13.5 12.625 13.3946 12.4314 13.2071C12.2378 13.0196 12.129 12.7652 12.129 12.5V5.5C12.129 5.23478 12.2378 4.98043 12.4314 4.79289C12.625 4.60536 12.8875 4.5 13.1613 4.5H17.2903C17.5641 4.5 17.8267 4.60536 18.0202 4.79289C18.2138 4.98043 18.3226 5.23478 18.3226 5.5C18.3226 5.76522 18.2138 6.01957 18.0202 6.20711C17.8267 6.39464 17.5641 6.5 17.2903 6.5H14.1935V8H15.4839ZM27.6129 12.5C27.6125 12.6527 27.576 12.8033 27.5063 12.9403C27.4365 13.0772 27.3352 13.1968 27.2103 13.29C27.1663 13.3234 27.1197 13.3535 27.071 13.38L26.9574 13.43H26.7561C26.7012 13.4352 26.6459 13.4352 26.591 13.43C26.4333 13.4296 26.2779 13.3943 26.1365 13.3267C25.9951 13.2591 25.8716 13.161 25.7755 13.04L25.729 12.985L23.7987 10.56L21.8219 13.06C21.7258 13.181 21.6023 13.2791 21.4609 13.3467C21.3196 13.4143 21.1641 13.4496 21.0065 13.45H20.9032C20.6295 13.45 20.3669 13.3446 20.1733 13.1571C19.9797 12.9696 19.871 12.7152 19.871 12.45V5.5C19.871 5.23478 19.9797 4.98043 20.1733 4.79289C20.3669 4.60536 20.6295 4.5 20.9032 4.5C21.177 4.5 21.4396 4.60536 21.6331 4.79289C21.8267 4.98043 21.9355 5.23478 21.9355 5.5V9.69L22.9161 8.465L22.9729 8.39C23.0267 8.32258 23.0891 8.26209 23.1587 8.21C23.2037 8.17541 23.2521 8.14526 23.3032 8.12C23.3459 8.09593 23.3908 8.07584 23.4374 8.06H23.489C23.5325 8.04528 23.5775 8.03522 23.6232 8.03C23.7324 8.00998 23.8444 8.00998 23.9535 8.03C23.9993 8.03522 24.0443 8.04528 24.0877 8.06H24.1394C24.1859 8.07584 24.2309 8.09593 24.2735 8.12C24.3247 8.14526 24.3731 8.17541 24.4181 8.21C24.5133 8.28104 24.5953 8.36727 24.6606 8.465L25.5484 9.575V5.5C25.5484 5.23478 25.6571 4.98043 25.8507 4.79289C26.0443 4.60536 26.3069 4.5 26.5806 4.5C26.8544 4.5 27.117 4.60536 27.3106 4.79289C27.5041 4.98043 27.6129 5.23478 27.6129 5.5V12.5Z" fill="#EB2321"/>
</svg>
