<svg width="18" height="14" viewBox="0 0 18 14" fill="none" xmlns="http://www.w3.org/2000/svg">
<path d="M7.51025 2.28906H8.47705L8.56494 3.00977H10.7622L10.8325 2.28906H11.8169C11.9224 2.28906 12.0103 2.25391 12.0806 2.18359C12.1509 2.11328 12.186 2.02539 12.186 1.91992V0.935547C12.186 0.841797 12.1509 0.756836 12.0806 0.680664C12.0103 0.604492 11.9224 0.566406 11.8169 0.566406H7.51025C7.40479 0.566406 7.31689 0.604492 7.24658 0.680664C7.17627 0.756836 7.14111 0.841797 7.14111 0.935547V1.91992C7.14111 2.02539 7.17627 2.11328 7.24658 2.18359C7.31689 2.25391 7.40479 2.28906 7.51025 2.28906ZM17.2485 5.04883H15.9653C15.8716 5.04883 15.7896 5.08398 15.7192 5.1543C15.6489 5.22461 15.6138 5.3125 15.6138 5.41797V6.49023H14.6997V4.1875C14.688 4.01172 14.647 3.88574 14.5767 3.80957C14.5063 3.7334 14.395 3.69531 14.2427 3.69531H7.38721C7.17627 3.69531 6.98877 3.73047 6.82471 3.80078C6.66064 3.87109 6.51416 3.99414 6.38525 4.16992C6.18604 4.42773 5.98096 4.67676 5.77002 4.91699C5.55908 5.15723 5.34814 5.39453 5.13721 5.62891H3.59033C3.47314 5.62891 3.37061 5.6582 3.28271 5.7168C3.19482 5.77539 3.14502 5.89844 3.1333 6.08594V7.38672H2.20166V6.34961C2.20166 6.24414 2.1665 6.15625 2.09619 6.08594C2.02588 6.01562 1.93799 5.98047 1.83252 5.98047H0.936035C0.830566 5.98047 0.742676 6.01562 0.672363 6.08594C0.602051 6.15625 0.566895 6.24414 0.566895 6.34961V10.7266C0.566895 10.832 0.602051 10.9199 0.672363 10.9902C0.742676 11.0605 0.830566 11.0957 0.936035 11.0957H1.83252C1.93799 11.0957 2.02588 11.0605 2.09619 10.9902C2.1665 10.9199 2.20166 10.832 2.20166 10.7266V9.68945H3.15088V11.043C3.15088 11.1953 3.18018 11.3066 3.23877 11.377C3.29736 11.4473 3.41455 11.4824 3.59033 11.4824H5.15479C5.38916 11.7637 5.62061 12.0361 5.84912 12.2998C6.07764 12.5635 6.30322 12.8359 6.52588 13.1172C6.61963 13.2227 6.72803 13.3018 6.85107 13.3545C6.97412 13.4072 7.1001 13.4336 7.229 13.4336C7.979 13.4219 8.72607 13.416 9.47021 13.416C10.2144 13.416 10.9614 13.4219 11.7114 13.4336C11.8403 13.4336 11.9692 13.4072 12.0981 13.3545C12.2271 13.3018 12.3501 13.2168 12.4673 13.0996C12.8071 12.7598 13.1206 12.4434 13.4077 12.1504C13.6948 11.8574 13.938 11.5879 14.1372 11.3418C14.3013 11.1426 14.436 10.9668 14.5415 10.8145C14.647 10.6621 14.6997 10.4043 14.6997 10.041V9.88281H15.6138V10.9727C15.6138 11.0664 15.6489 11.1484 15.7192 11.2188C15.7896 11.2891 15.8774 11.3242 15.9829 11.3242H17.2485C17.354 11.3242 17.4419 11.2891 17.5122 11.2188C17.5825 11.1484 17.6177 11.0664 17.6177 10.9727V5.41797C17.6177 5.3125 17.5825 5.22461 17.5122 5.1543C17.4419 5.08398 17.354 5.04883 17.2485 5.04883ZM12.6431 5.69922H7.77393L7.14111 6.4375C7.10596 6.47266 7.06494 6.50195 7.01807 6.52539C6.97119 6.54883 6.91846 6.56055 6.85986 6.56055C6.82471 6.56055 6.78662 6.55176 6.74561 6.53418C6.70459 6.5166 6.6665 6.49609 6.63135 6.47266C6.54932 6.40234 6.50537 6.31738 6.49951 6.21777C6.49365 6.11816 6.52588 6.02734 6.59619 5.94531L7.33447 5.08398C7.36963 5.04883 7.41064 5.01953 7.45752 4.99609C7.50439 4.97266 7.55713 4.96094 7.61572 4.96094H12.6431C12.7485 4.96094 12.8364 4.99609 12.9067 5.06641C12.9771 5.13672 13.0122 5.22461 13.0122 5.33008C13.0122 5.43555 12.9771 5.52344 12.9067 5.59375C12.8364 5.66406 12.7485 5.69922 12.6431 5.69922Z" fill="#EB2321"/>
</svg>
