<svg width="15" height="15" viewBox="0 0 15 15" fill="none" xmlns="http://www.w3.org/2000/svg">
<path d="M6.54156 0.25V1.975C6.003 2.10753 5.48773 2.32123 5.01344 2.60875L3.79375 1.38906L1.95156 3.23125L3.17031 4.45C2.88368 4.92475 2.67094 5.44033 2.53938 5.97906H0.8125V8.58344H2.5375C2.67003 9.122 2.88373 9.63727 3.17125 10.1116L1.95156 11.3312L3.79375 13.1734L5.0125 11.9547C5.48725 12.2413 6.00283 12.4541 6.54156 12.5856V14.3125H9.14594V12.5875C9.6845 12.455 10.1998 12.2413 10.6741 11.9537L11.8937 13.1734L13.7359 11.3312L12.5172 10.1125C12.8038 9.63775 13.0166 9.12217 13.1481 8.58344H14.875V5.97813H13.15C13.0175 5.43956 12.8038 4.92429 12.5163 4.45L13.7359 3.23031L11.8937 1.38812L10.675 2.60687C10.2003 2.32025 9.68467 2.1075 9.14594 1.97594V0.25H6.54062H6.54156ZM7.84375 4.41719C8.60327 4.41744 9.33161 4.71926 9.86867 5.25633C10.4057 5.79339 10.7076 6.52173 10.7078 7.28125C10.7076 8.04077 10.4057 8.76911 9.86867 9.30617C9.33161 9.84324 8.60327 10.1451 7.84375 10.1453C7.08423 10.1451 6.35589 9.84324 5.81883 9.30617C5.28176 8.76911 4.97994 8.04077 4.97969 7.28125C4.97994 6.52173 5.28176 5.79339 5.81883 5.25633C6.35589 4.71926 7.08423 4.41744 7.84375 4.41719Z" fill="#CB0013"/>
</svg>
