<svg width="18" height="17" viewBox="0 0 18 17" fill="none" xmlns="http://www.w3.org/2000/svg">
<path d="M15.48 1.44681V0H2.52V1.44681H0V17H1.44V2.89362H2.52V4.34043H15.48V2.89362H16.56V17H18V1.44681H15.48ZM15.1387 9.76596L12.7897 5.74202C12.6965 5.56804 12.4621 5.42553 12.2692 5.42553H5.73048C5.53752 5.42553 5.30316 5.56804 5.21028 5.74202L2.86164 9.76596C2.47572 9.76596 2.16 10.0915 2.16 10.4894V14.1064C2.16 14.5043 2.47572 14.8298 2.86164 14.8298H3.6V15.9149C3.6 16.5117 4.03668 17 4.6152 17H4.9662C5.54472 17 6.12 16.5117 6.12 15.9149V14.8298H11.88V15.9149C11.88 16.5117 12.4549 17 13.0338 17H13.3848C13.9633 17 14.4 16.5117 14.4 15.9149V14.8298H15.1387C15.5243 14.8298 15.84 14.5043 15.84 14.1064V10.4894C15.84 10.0915 15.5243 9.76596 15.1387 9.76596ZM4.08924 12.6596C3.60504 12.6596 3.21228 12.2548 3.21228 11.7553C3.21228 11.2558 3.60504 10.8511 4.08924 10.8511C4.5738 10.8511 4.9662 11.2558 4.9662 11.7553C4.9662 12.2548 4.5738 12.6596 4.08924 12.6596ZM4.6152 9.76596L6.21216 6.834C6.29856 6.65604 6.52716 6.51064 6.71976 6.51064H11.2799C11.4728 6.51064 11.7014 6.65604 11.7875 6.834L13.3848 9.76596H4.6152ZM13.9108 12.6596C13.4266 12.6596 13.0338 12.2548 13.0338 11.7553C13.0338 11.2558 13.4266 10.8511 13.9108 10.8511C14.3953 10.8511 14.7881 11.2558 14.7881 11.7553C14.7881 12.2548 14.395 12.6596 13.9108 12.6596Z" fill="#C80013"/>
</svg>
